<svg width="249" height="56" viewBox="0 0 249 56" fill="none" xmlns="http://www.w3.org/2000/svg">
<g clip-path="url(#clip0_6052_2)">
<path d="M68.9985 24.3133V24.2453C68.9985 16.5675 74.9597 10.1017 82.7985 10.1017C87.2872 10.1017 90.3008 11.853 92.7141 14.0078C93.0492 14.2768 93.3171 14.8162 93.3171 15.4222C93.3171 16.4996 92.4463 17.3746 91.3749 17.3746C90.8392 17.3746 90.3695 17.1721 90.1016 16.9031C88.1594 15.1518 85.9494 13.6709 82.7339 13.6709C77.2411 13.6709 73.0875 18.3175 73.0875 24.1774V24.2453C73.0875 30.1052 77.3744 34.8184 83.0018 34.8184C86.084 34.8184 88.5619 33.4041 90.5041 31.5183C90.7719 31.2492 91.107 30.9789 91.6427 30.9789C92.6482 30.9789 93.4517 31.8538 93.4517 32.7968C93.4517 33.2682 93.2511 33.7397 92.9147 34.0766C90.3695 36.6363 87.2886 38.4542 82.7326 38.4542C74.9611 38.3877 68.9999 31.9218 68.9999 24.3119L68.9985 24.3133Z" fill="white"/>
<path d="M99.2783 12.4589C99.2783 11.3815 100.149 10.4386 101.288 10.4386C102.426 10.4386 103.297 11.3136 103.297 12.4589V15.2197C105.039 12.5255 107.451 10.1017 112.006 10.1017C116.56 10.1017 119.174 12.4589 120.648 15.4901C122.59 12.5269 125.472 10.1017 130.161 10.1017C136.39 10.1017 140.209 14.2768 140.209 21.0117V36.0304C140.209 37.1757 139.338 38.0507 138.199 38.0507C137.06 38.0507 136.19 37.1757 136.19 36.0304V21.9546C136.19 16.702 133.577 13.7388 129.223 13.7388C125.137 13.7388 121.787 16.77 121.787 22.1571V36.0304C121.787 37.1757 120.916 38.0507 119.777 38.0507C118.706 38.0507 117.768 37.1757 117.768 36.0304V21.8867C117.768 16.7686 115.088 13.8054 110.801 13.8054C106.514 13.8054 103.299 17.3746 103.299 22.3582V36.0304C103.299 37.1757 102.495 38.0507 101.289 38.0507C100.15 38.0507 99.2797 37.1757 99.2797 36.0304V12.4589H99.2783Z" fill="white"/>
<path d="M145.703 29.9028V29.7683C145.703 24.0442 150.392 21.0131 157.225 21.0131C160.641 21.0131 163.121 21.4845 165.531 22.1584V21.2155C165.531 16.3664 162.583 13.8067 157.493 13.8067C154.747 13.8067 152.469 14.4127 150.527 15.3556C150.259 15.4901 149.991 15.4901 149.79 15.4901C148.852 15.4901 148.049 14.6817 148.049 13.7388C148.049 12.9304 148.652 12.2565 149.12 12.0554C151.8 10.9101 154.48 10.2375 157.963 10.2375C161.781 10.2375 164.662 11.2484 166.671 13.2008C168.48 15.0187 169.418 17.6463 169.418 21.1476V35.9638C169.418 37.1091 168.615 37.9841 167.475 37.9841C166.335 37.9841 165.531 37.1757 165.531 36.0983V33.6731C163.656 36.1649 160.507 38.3197 155.75 38.3197C150.726 38.3197 145.703 35.491 145.703 29.9014V29.9028ZM165.598 27.8145V25.1882C163.589 24.5823 160.976 24.0429 157.694 24.0429C152.602 24.0429 149.789 26.2657 149.789 29.6324V29.7669C149.789 33.2016 152.937 35.1554 156.555 35.1554C161.512 35.1554 165.598 32.1242 165.598 27.8145Z" fill="white"/>
<path d="M176.919 12.4589C176.919 11.3815 177.79 10.4386 178.929 10.4386C180.067 10.4386 180.94 11.3136 180.94 12.4589V17.5104C182.949 12.9983 186.835 10.3041 190.251 10.3041C191.457 10.3041 192.26 11.1791 192.26 12.3244C192.26 13.4019 191.524 14.2103 190.451 14.3448C185.226 14.9507 180.94 18.9248 180.94 26.7371V35.9638C180.94 37.0412 180.136 37.9841 178.929 37.9841C177.79 37.9841 176.919 37.1078 176.919 35.9638V12.4589Z" fill="white"/>
<path d="M196.547 2.15484C196.547 0.874979 197.618 0 198.892 0C200.232 0 201.304 0.808404 201.304 2.15484V2.82874C201.304 4.1086 200.232 4.98357 198.892 4.98357C197.551 4.98357 196.547 4.1086 196.547 2.82874V2.15484Z" fill="white"/>
<path d="M196.949 12.4589C196.949 11.3815 197.82 10.4386 198.959 10.4386C200.098 10.4386 200.968 11.3136 200.968 12.4589V36.0304C200.968 37.1757 200.165 38.0507 198.959 38.0507C197.82 38.0507 196.949 37.1757 196.949 36.0304V12.4589Z" fill="white"/>
<path d="M206.969 34.8864L215.812 23.9763L207.506 13.7388C207.103 13.2673 206.903 12.7959 206.903 12.2565C206.903 11.1111 207.706 10.3707 208.779 10.3707C209.583 10.3707 210.118 10.7076 210.588 11.3136L218.292 21.2142L225.996 11.3815C226.466 10.7756 227.002 10.3707 227.738 10.3707C228.809 10.3707 229.547 11.1791 229.547 12.1886C229.547 12.728 229.346 13.1315 229.011 13.4684L220.638 23.7725L229.414 34.5481C229.749 35.0195 230.017 35.491 230.017 36.029C230.017 37.1064 229.213 37.9148 228.141 37.9148C227.337 37.9148 226.867 37.5779 226.399 36.9719L218.226 26.5333L209.986 37.0399C209.518 37.6458 208.981 38.0493 208.245 38.0493C207.173 38.0493 206.436 37.2409 206.436 36.2315C206.436 35.6921 206.569 35.222 206.971 34.885L206.969 34.8864Z" fill="white"/>
<path d="M68.9987 53.6251V46.8671C68.9987 46.5016 69.2719 46.1361 69.7255 46.1361H74.4484C74.8118 46.1361 75.0837 46.4106 75.0837 46.7747C75.0837 47.1388 74.8105 47.4146 74.4484 47.4146H70.4509V49.6061H73.9935C74.3569 49.6061 74.6301 49.8806 74.6301 50.2447C74.6301 50.6088 74.3569 50.8846 73.9935 50.8846H70.4509V53.0762H74.5386C74.902 53.0762 75.1739 53.3506 75.1739 53.7161C75.1739 54.0816 74.902 54.3547 74.5386 54.3547H69.7241C69.3607 54.3547 68.9973 54.0802 68.9973 53.6237L68.9987 53.6251Z" fill="white"/>
<path d="M76.7202 48.8765C76.7202 48.511 76.9934 48.1456 77.447 48.1456C77.8104 48.1456 78.1738 48.4187 78.1738 48.8765V49.151C78.5372 48.6034 79.1738 48.0545 80.081 48.0545C81.4445 48.0545 82.2614 48.9676 82.2614 50.4281V53.7161C82.2614 54.0816 81.9882 54.447 81.5346 54.447C81.1712 54.447 80.8078 54.1726 80.8078 53.7161V50.8846C80.8078 49.8806 80.3542 49.3317 79.4457 49.3317C78.6287 49.3317 78.0823 49.8792 78.0823 50.8846V53.7161C78.0823 54.0816 77.8091 54.447 77.3555 54.447C76.9921 54.447 76.6287 54.1726 76.6287 53.7161V48.8765H76.7188H76.7202Z" fill="white"/>
<path d="M86.3491 54.5381C85.8955 54.5381 85.6223 54.2636 85.4406 53.8981L83.3517 49.1496C83.3517 49.0586 83.2615 48.9676 83.2615 48.7841C83.2615 48.4187 83.5334 48.1456 83.9883 48.1456C84.3517 48.1456 84.5334 48.3276 84.7151 48.6931L86.2589 52.8031L87.8942 48.6931C87.9844 48.4187 88.1661 48.2366 88.5309 48.2366C88.8956 48.2366 89.2577 48.5097 89.2577 48.8752C89.2577 48.9662 89.1661 49.1496 89.1661 49.2407L87.0772 53.9892C86.9871 54.2636 86.7138 54.5367 86.3504 54.5367L86.3491 54.5381Z" fill="white"/>
<path d="M90.5271 46.5016C90.5271 46.0451 90.8905 45.7706 91.3441 45.7706C91.7977 45.7706 92.1624 46.0451 92.1624 46.5016V46.5926C92.1624 47.0491 91.799 47.3236 91.3441 47.3236C90.8892 47.3236 90.5271 47.0491 90.5271 46.5016ZM90.7088 48.8752C90.7088 48.5097 90.982 48.1442 91.4356 48.1442C91.799 48.1442 92.1624 48.4173 92.1624 48.8752V53.8071C92.1624 54.1726 91.8892 54.5381 91.4356 54.5381C91.0722 54.5381 90.7088 54.2636 90.7088 53.8071V48.8752Z" fill="white"/>
<path d="M93.7061 53.7161C93.5244 53.6251 93.4329 53.4416 93.4329 53.2596C93.4329 52.9865 93.7061 52.712 93.978 52.712C94.0681 52.712 94.1597 52.712 94.2512 52.8031C94.8878 53.1685 95.4316 53.4416 96.0682 53.4416C96.7049 53.4416 97.0683 53.1672 97.0683 52.8031C97.0683 52.3466 96.4316 52.1631 95.7048 51.89C94.7963 51.6156 93.7976 51.2501 93.7976 50.064C93.7976 48.8779 94.7977 48.1456 95.978 48.1456C96.6147 48.1456 97.3401 48.3276 97.8853 48.6931C98.067 48.7841 98.2487 48.9676 98.2487 49.2407C98.2487 49.6061 97.9754 49.7882 97.7035 49.7882C97.6134 49.7882 97.5218 49.7882 97.4303 49.6972C96.8866 49.4227 96.4316 49.2407 95.9767 49.2407C95.4316 49.2407 95.1584 49.5137 95.1584 49.8792C95.1584 50.3357 95.795 50.5178 96.5218 50.7922C97.429 51.0653 98.429 51.5232 98.429 52.6183C98.429 53.8968 97.429 54.5367 96.1584 54.5367C95.2499 54.5367 94.4329 54.2623 93.7061 53.7147V53.7161Z" fill="white"/>
<path d="M99.7009 46.5016C99.7009 46.0451 100.064 45.7706 100.519 45.7706C100.974 45.7706 101.336 46.0451 101.336 46.5016V46.5926C101.336 47.0491 100.973 47.3236 100.519 47.3236C100.066 47.3236 99.7009 47.0491 99.7009 46.5016ZM99.8826 48.8752C99.8826 48.5097 100.155 48.1442 100.609 48.1442C100.973 48.1442 101.336 48.4173 101.336 48.8752V53.8071C101.336 54.1726 101.063 54.5381 100.609 54.5381C100.246 54.5381 99.8826 54.2636 99.8826 53.8071V48.8752Z" fill="white"/>
<path d="M102.79 51.3425C102.79 49.5165 104.152 48.0545 106.059 48.0545C107.966 48.0545 109.33 49.5151 109.33 51.2501C109.33 52.9851 107.968 54.447 106.059 54.447C104.152 54.5381 102.79 53.0775 102.79 51.3425ZM107.877 51.3425C107.877 50.2461 107.059 49.333 105.97 49.333C104.881 49.333 104.153 50.2461 104.153 51.3425C104.153 52.4389 104.972 53.352 106.06 53.352C107.151 53.2609 107.877 52.3479 107.877 51.3425Z" fill="white"/>
<path d="M110.783 48.8765C110.783 48.511 111.057 48.1456 111.51 48.1456C111.874 48.1456 112.237 48.4187 112.237 48.8765V49.151C112.6 48.6034 113.237 48.0545 114.146 48.0545C115.508 48.0545 116.326 48.9676 116.326 50.4281V53.7161C116.326 54.0816 116.053 54.447 115.599 54.447C115.236 54.447 114.872 54.1726 114.872 53.7161V50.8846C114.872 49.8806 114.417 49.3317 113.51 49.3317C112.692 49.3317 112.148 49.8792 112.148 50.8846V53.7161C112.148 54.0816 111.875 54.447 111.421 54.447C111.058 54.447 110.695 54.1726 110.695 53.7161V48.8765H110.785H110.783Z" fill="white"/>
<path d="M122.177 49.8398C122.59 49.8398 122.922 50.1727 122.922 50.5898V50.6727C122.922 51.0884 122.591 51.4227 122.177 51.4227C121.762 51.4227 121.431 51.0898 121.431 50.6727V50.5898C121.431 50.0898 121.762 49.8398 122.177 49.8398Z" fill="white"/>
<path d="M128.008 46.5016C128.008 46.1361 128.281 45.7706 128.734 45.7706C129.098 45.7706 129.461 46.0451 129.461 46.5016V52.712H133.185C133.549 52.712 133.822 52.9865 133.822 53.3506C133.822 53.7147 133.549 53.9892 133.185 53.9892H128.734C128.371 53.9892 128.008 53.7161 128.008 53.2582V46.5002V46.5016Z" fill="white"/>
<path d="M137.728 54.1726C135.911 54.1726 134.549 52.8941 134.549 50.977C134.549 49.242 135.821 47.7801 137.546 47.7801C139.545 47.7801 140.454 49.4241 140.454 50.7936C140.454 51.1591 140.18 51.4322 139.817 51.4322H136.002C136.184 52.4362 136.821 52.9851 137.819 52.9851C138.456 52.9851 138.91 52.8031 139.273 52.4376C139.365 52.3466 139.455 52.3466 139.637 52.3466C139.91 52.3466 140.182 52.621 140.182 52.8941C140.182 53.0762 140.091 53.2596 140 53.3506C139.365 53.8071 138.638 54.1726 137.729 54.1726H137.728ZM139.091 50.5192C139.001 49.6061 138.455 48.8752 137.546 48.8752C136.638 48.8752 136.093 49.5137 135.911 50.5192H139.09H139.091Z" fill="white"/>
<path d="M144.268 54.1726C143.814 54.1726 143.541 53.8981 143.359 53.534L141.271 48.7855C141.271 48.6945 141.18 48.6034 141.18 48.42C141.18 48.0545 141.454 47.7814 141.907 47.7814C142.271 47.7814 142.452 47.9635 142.634 48.329L144.178 52.4389L145.813 48.329C145.903 48.0545 146.086 47.8725 146.45 47.8725C146.813 47.8725 147.177 48.1469 147.177 48.511C147.177 48.6021 147.086 48.7855 147.086 48.8765L144.998 53.6251C144.907 53.8981 144.634 54.1726 144.271 54.1726H144.268Z" fill="white"/>
<path d="M151.081 54.1726C149.264 54.1726 147.902 52.8941 147.902 50.977C147.902 49.242 149.174 47.7801 150.899 47.7801C152.898 47.7801 153.807 49.4241 153.807 50.7936C153.807 51.1591 153.533 51.4322 153.17 51.4322H149.355C149.536 52.4362 150.172 52.9851 151.173 52.9851C151.808 52.9851 152.263 52.8031 152.626 52.4376C152.718 52.3466 152.808 52.3466 152.99 52.3466C153.263 52.3466 153.535 52.621 153.535 52.8941C153.535 53.0762 153.444 53.2596 153.353 53.3506C152.716 53.8071 152.081 54.1726 151.082 54.1726H151.081ZM152.443 50.5192C152.352 49.6061 151.806 48.8752 150.899 48.8752C149.992 48.8752 149.446 49.5137 149.264 50.5192H152.443Z" fill="white"/>
<path d="M155.259 48.511C155.259 48.1456 155.532 47.7801 155.986 47.7801C156.439 47.7801 156.713 48.0545 156.713 48.511V49.151C157.076 48.42 157.621 47.7814 158.256 47.7814C158.71 47.7814 158.983 48.0559 158.983 48.5124C158.983 48.8779 158.711 49.1523 158.44 49.1523C157.439 49.3344 156.713 50.0654 156.713 51.5259V53.352C156.713 53.7174 156.439 54.0829 155.986 54.0829C155.622 54.0829 155.259 53.8098 155.259 53.352V48.5124V48.511Z" fill="white"/>
<path d="M159.437 52.2555C159.437 50.886 160.437 50.2461 161.981 50.2461C162.707 50.2461 163.162 50.3371 163.616 50.5205V50.3385C163.616 49.4254 163.072 48.9689 162.072 48.9689C161.527 48.9689 161.073 49.0599 160.71 49.2434H160.528C160.165 49.2434 159.892 48.9689 159.892 48.6958C159.892 48.4227 160.073 48.2393 160.255 48.1483C160.8 47.9662 161.436 47.7828 162.254 47.7828C163.162 47.7828 163.889 48.0573 164.253 48.5138C164.707 48.9703 164.889 49.6102 164.889 50.4322V53.4457C164.889 53.8112 164.616 54.0843 164.162 54.0843C163.799 54.0843 163.436 53.8112 163.436 53.4457V53.1713C162.981 53.7188 162.345 54.0843 161.437 54.0843C160.438 54.1753 159.438 53.4457 159.438 52.2582L159.437 52.2555ZM163.615 51.799V51.3425C163.251 51.1604 162.798 51.0694 162.252 51.0694C161.345 51.0694 160.799 51.4349 160.799 52.0735C160.799 52.712 161.344 52.9865 161.979 52.9865C162.888 53.0775 163.615 52.53 163.615 51.799Z" fill="white"/>
<path d="M167.068 55.3601C166.795 55.269 166.705 55.0856 166.705 54.8125C166.705 54.5394 166.977 54.265 167.342 54.265C167.432 54.265 167.523 54.265 167.613 54.356C168.158 54.6305 168.794 54.8125 169.521 54.8125C170.792 54.8125 171.428 54.1726 171.428 52.8941V52.4376C170.883 53.0762 170.246 53.534 169.247 53.534C167.794 53.534 166.432 52.4376 166.432 50.6115C166.432 48.7855 167.795 47.6891 169.247 47.6891C170.246 47.6891 170.883 48.1456 171.428 48.7855V48.511C171.428 48.1456 171.701 47.7801 172.155 47.7801C172.518 47.7801 172.881 48.0545 172.881 48.511V52.8031C172.881 53.8071 172.608 54.6291 172.064 55.1766C171.519 55.7242 170.611 55.9986 169.521 55.9986C168.521 55.9076 167.795 55.7242 167.068 55.3601ZM171.338 50.6115C171.338 49.6075 170.519 48.8765 169.521 48.8765C168.522 48.8765 167.795 49.5151 167.795 50.6115C167.795 51.6156 168.612 52.3466 169.521 52.3466C170.519 52.3466 171.338 51.6156 171.338 50.6115Z" fill="white"/>
<path d="M177.331 54.1726C175.514 54.1726 174.152 52.8941 174.152 50.977C174.152 49.242 175.424 47.7801 177.149 47.7801C179.148 47.7801 180.057 49.4241 180.057 50.7936C180.057 51.1591 179.783 51.4322 179.42 51.4322H175.605C175.787 52.4362 176.422 52.9851 177.422 52.9851C178.059 52.9851 178.513 52.8031 178.876 52.4376C178.966 52.3466 179.058 52.3466 179.24 52.3466C179.513 52.3466 179.785 52.621 179.785 52.8941C179.785 53.0762 179.694 53.2596 179.603 53.3506C178.966 53.8071 178.241 54.1726 177.332 54.1726H177.331ZM178.693 50.5192C178.603 49.6061 178.058 48.8752 177.149 48.8752C176.241 48.8752 175.696 49.5137 175.514 50.5192H178.693Z" fill="white"/>
<path d="M185.928 49.8398C186.341 49.8398 186.673 50.1727 186.673 50.5898V50.6727C186.673 51.0884 186.342 51.4227 185.928 51.4227C185.513 51.4227 185.182 51.0898 185.182 50.6727V50.5898C185.182 50.0898 185.513 49.8398 185.928 49.8398Z" fill="white"/>
<path d="M191.76 46.8671C191.76 46.5016 192.033 46.1361 192.486 46.1361C192.85 46.1361 193.213 46.4106 193.213 46.8671V53.7161C193.213 54.0816 192.94 54.447 192.486 54.447C192.123 54.447 191.76 54.1726 191.76 53.7161V46.8671Z" fill="white"/>
<path d="M195.212 48.8765C195.212 48.511 195.485 48.1456 195.939 48.1456C196.392 48.1456 196.666 48.4187 196.666 48.8765V49.151C197.029 48.6034 197.666 48.0545 198.573 48.0545C199.936 48.0545 200.753 48.9676 200.753 50.4281V53.7161C200.753 54.0816 200.481 54.447 200.026 54.447C199.571 54.447 199.3 54.1726 199.3 53.7161V50.8846C199.3 49.8806 198.846 49.3317 197.937 49.3317C197.12 49.3317 196.574 49.8792 196.574 50.8846V53.7161C196.574 54.0816 196.301 54.447 195.847 54.447C195.484 54.447 195.12 54.1726 195.12 53.7161V48.8765H195.211H195.212Z" fill="white"/>
<path d="M202.751 49.4241H202.477C202.114 49.4241 201.841 49.151 201.841 48.8765C201.841 48.6021 202.114 48.238 202.477 48.238H202.751V47.7814C202.751 47.1429 202.932 46.594 203.294 46.2285C203.658 45.863 204.113 45.772 204.658 45.772C204.931 45.772 205.203 45.772 205.385 45.863C205.658 45.863 205.84 46.1375 205.84 46.4106C205.84 46.776 205.566 47.0491 205.204 46.9581H204.931C204.386 46.9581 204.114 47.2325 204.114 47.8711V48.2366H205.204C205.568 48.2366 205.84 48.5097 205.84 48.7841C205.84 49.0586 205.566 49.3317 205.204 49.3317H204.114V53.6237C204.114 53.9892 203.841 54.3547 203.387 54.3547C203.024 54.3547 202.66 54.0802 202.66 53.6237V49.4227H202.752L202.751 49.4241ZM206.838 46.5016C206.838 46.0451 207.202 45.7706 207.655 45.7706C208.109 45.7706 208.474 46.0451 208.474 46.5016V46.5926C208.474 47.0491 208.11 47.3236 207.655 47.3236C207.2 47.3236 206.838 47.0491 206.838 46.5016ZM206.929 48.8752C206.929 48.5097 207.202 48.1442 207.655 48.1442C208.109 48.1442 208.382 48.4173 208.382 48.8752V53.8071C208.382 54.1726 208.11 54.5381 207.655 54.5381C207.292 54.5381 206.929 54.2636 206.929 53.8071V48.8752Z" fill="white"/>
<path d="M210.199 48.8765C210.199 48.511 210.472 48.1456 210.926 48.1456C211.379 48.1456 211.653 48.4187 211.653 48.8765V49.151C212.016 48.6034 212.651 48.0545 213.56 48.0545C214.922 48.0545 215.74 48.9676 215.74 50.4281V53.7161C215.74 54.0816 215.467 54.447 215.014 54.447C214.56 54.447 214.287 54.1726 214.287 53.7161V50.8846C214.287 49.8806 213.833 49.3317 212.925 49.3317C212.108 49.3317 211.562 49.8792 211.562 50.8846V53.7161C211.562 54.0816 211.289 54.447 210.836 54.447C210.472 54.447 210.109 54.1726 210.109 53.7161V48.8765H210.199Z" fill="white"/>
<path d="M217.374 46.5016C217.374 46.0451 217.738 45.7706 218.193 45.7706C218.648 45.7706 219.01 46.0451 219.01 46.5016V46.5926C219.01 47.0491 218.646 47.3236 218.193 47.3236C217.739 47.3236 217.374 47.0491 217.374 46.5016ZM217.466 48.8752C217.466 48.5097 217.739 48.1442 218.193 48.1442C218.646 48.1442 218.919 48.4173 218.919 48.8752V53.8071C218.919 54.1726 218.646 54.5381 218.193 54.5381C217.829 54.5381 217.466 54.2636 217.466 53.8071V48.8752Z" fill="white"/>
<path d="M221.008 52.712V49.4241H220.735C220.372 49.4241 220.099 49.151 220.099 48.7855C220.099 48.42 220.372 48.1469 220.735 48.1469H221.008V47.0505C221.008 46.685 221.282 46.3195 221.735 46.3195C222.099 46.3195 222.462 46.5926 222.462 47.0505V48.1469H223.552C223.916 48.1469 224.189 48.42 224.189 48.7855C224.189 49.151 223.916 49.4241 223.552 49.4241H222.462V52.4376C222.462 52.9851 222.735 53.1685 223.189 53.1685H223.552C223.826 53.1685 224.189 53.443 224.189 53.7161C224.189 53.9892 224.007 54.1726 223.826 54.2636C223.552 54.3547 223.189 54.4457 222.826 54.4457C221.827 54.4457 221.008 53.9892 221.008 52.7107V52.712Z" fill="white"/>
<path d="M228.185 54.5381C226.368 54.5381 225.006 53.2596 225.006 51.3411C225.006 49.6061 226.278 48.1456 228.003 48.1456C230.002 48.1456 230.911 49.7896 230.911 51.1591C230.911 51.5246 230.637 51.799 230.274 51.799H226.459C226.641 52.8031 227.276 53.352 228.277 53.352C228.913 53.352 229.367 53.1699 229.73 52.8044C229.822 52.7134 229.912 52.7134 230.094 52.7134C230.367 52.7134 230.639 52.9878 230.639 53.2609C230.639 53.443 230.548 53.6264 230.457 53.7174C229.82 54.174 229.185 54.5394 228.186 54.5394L228.185 54.5381ZM229.639 50.8846C229.548 49.9716 229.002 49.2407 228.095 49.2407C227.188 49.2407 226.641 49.8792 226.459 50.8846H229.639Z" fill="white"/>
<path d="M39.7915 9.29492C30.0105 9.29492 21.8379 24.3136 21.8379 27.2089C21.8379 29.8352 29.6094 45.1908 39.7915 45.1908C49.9735 45.1908 55.4004 36.975 55.4004 27.2089C55.4004 17.4428 49.5052 9.29492 39.7915 9.29492Z" fill="url(#paint0_radial_6052_2)"/>
<path d="M7.6369 35.627C3.41601 35.627 0 31.5863 0 27.1408C0 22.6952 3.41601 18.7891 7.6369 18.7891C11.0529 18.7891 16.613 24.2441 16.613 27.1408C16.613 30.0374 11.1862 35.627 7.6369 35.627Z" fill="url(#paint1_radial_6052_2)"/>
<path d="M39.7916 49.2988C30.6809 49.2988 23.2445 40.2746 19.8285 33.4718L19.6939 33.2693C19.3588 32.73 19.1582 32.4609 18.9577 32.4609C18.8231 32.4609 18.6898 32.5954 18.5552 32.7979C16.0101 36.3671 11.5886 39.6673 7.70288 39.7352C12.1916 48.4904 21.3023 54.4169 31.7522 54.4169C40.4605 54.4169 48.232 50.2418 53.1891 43.8438C49.7058 47.2785 45.0838 49.2988 39.7916 49.2988Z" fill="url(#paint2_radial_6052_2)"/>
<path d="M18.5564 21.619C18.7569 21.8881 18.8915 22.0226 19.0248 22.0226C19.2253 22.0226 19.5605 21.4832 19.9629 20.6082L20.0302 20.5403C23.5135 13.8054 30.8152 5.18466 39.7927 5.18466C45.085 5.18466 49.7069 7.13705 53.1243 10.5731C48.1658 4.1086 40.3943 0 31.6861 0C21.2362 0 12.1914 5.99442 7.63672 14.7496C11.3206 14.7496 15.8766 17.9153 18.5564 21.619Z" fill="url(#paint3_radial_6052_2)"/>
<path d="M238.549 7.88025C238.549 4.98494 240.826 2.55972 243.774 2.55972C246.721 2.55972 248.999 4.917 248.999 7.81231C248.999 10.7076 246.721 13.0649 243.774 13.0649C240.826 13.1328 238.549 10.7756 238.549 7.87889V7.88025ZM248.33 7.88025C248.33 5.32053 246.388 3.16569 243.708 3.16569C241.028 3.16569 239.086 5.32053 239.086 7.88025C239.086 10.44 241.028 12.5269 243.708 12.5269C246.32 12.5948 248.33 10.4386 248.33 7.88025ZM241.564 5.72541C241.564 5.32188 241.832 5.05151 242.234 5.05151H244.11C245.384 5.05151 246.32 5.65747 246.32 6.8694C246.32 7.67781 245.918 8.28377 245.249 8.55278L246.052 9.56363C246.187 9.69814 246.253 9.83264 246.253 10.0351C246.253 10.372 245.985 10.641 245.583 10.641C245.315 10.641 245.18 10.5065 245.047 10.372L243.774 8.82316H242.903V9.96851C242.903 10.3055 242.635 10.6424 242.233 10.6424C241.898 10.6424 241.562 10.3734 241.562 9.96851V5.72541H241.564ZM244.043 7.67916C244.646 7.67916 244.981 7.41015 244.981 6.93869C244.981 6.46724 244.646 6.19822 244.043 6.19822H242.904V7.68052H244.043V7.67916Z" fill="white"/>
</g>
<defs>
<radialGradient id="paint0_radial_6052_2" cx="0" cy="0" r="1" gradientUnits="userSpaceOnUse" gradientTransform="translate(38.4908 18.6234) scale(16.1056 16.1926)">
<stop offset="0.35" stop-color="#EF6224"/>
<stop offset="1" stop-color="#D24D27"/>
</radialGradient>
<radialGradient id="paint1_radial_6052_2" cx="0" cy="0" r="1" gradientUnits="userSpaceOnUse" gradientTransform="translate(4.93791 17.6494) scale(12.4086 12.4755)">
<stop offset="0.35" stop-color="#EF6224"/>
<stop offset="1" stop-color="#D24D27"/>
</radialGradient>
<radialGradient id="paint2_radial_6052_2" cx="0" cy="0" r="1" gradientUnits="userSpaceOnUse" gradientTransform="translate(30.4921 38.7673) scale(14.483 14.5606)">
<stop offset="0.35" stop-color="#EF6224"/>
<stop offset="1" stop-color="#D24D27"/>
</radialGradient>
<radialGradient id="paint3_radial_6052_2" cx="0" cy="0" r="1" gradientUnits="userSpaceOnUse" gradientTransform="translate(29.8407 5.59715) scale(14.4713 14.5488)">
<stop offset="0.35" stop-color="#EF6224"/>
<stop offset="1" stop-color="#D24D27"/>
</radialGradient>
<clipPath id="clip0_6052_2">
<rect width="249" height="56" fill="white"/>
</clipPath>
</defs>
</svg>
